HIERARCHY
ROOT Hips
{
	OFFSET 0.000003 96.368652 -0.035689
	CHANNELS 6 Xposition Yposition Zposition Xrotation Yrotation Zrotation
	JOINT Spine
	{
		OFFSET 0.000010 9.226303 1.577100
		CHANNELS 6 Xposition Yposition Zposition Xrotation Yrotation Zrotation
		JOINT Spine1
		{
			OFFSET 0.000000 16.253998 -0.165600
			CHANNELS 6 Xposition Yposition Zposition Xrotation Yrotation Zrotation
			JOINT Spine2
			{
				OFFSET -0.000000 13.639587 -1.292299
				CHANNELS 6 Xposition Yposition Zposition Xrotation Yrotation Zrotation
				JOINT Neck
				{
					OFFSET 0.000000 13.877411 -4.354199
					CHANNELS 6 Xposition Yposition Zposition Xrotation Yrotation Zrotation
					JOINT Neck1
					{
						OFFSET 0.000000 4.339996 0.926899
						CHANNELS 6 Xposition Yposition Zposition Xrotation Yrotation Zrotation
						JOINT Head
						{
							OFFSET 0.000000 4.026611 0.858500
							CHANNELS 6 Xposition Yposition Zposition Xrotation Yrotation Zrotation
							JOINT HeadTop_End
							{
								OFFSET 0.000000 21.748810 0.000000
								CHANNELS 6 Xposition Yposition Zposition Xrotation Yrotation Zrotation
								End Site
								{
									OFFSET 0.000000 11.825378 0.000000
								}
							}
							JOINT L_Eye
							{
								OFFSET 3.005700 7.261795 7.955601
								CHANNELS 6 Xposition Yposition Zposition Xrotation Yrotation Zrotation
								End Site
								{
									OFFSET 0.000000 11.825378 0.000000
								}
							}
							JOINT R_Eye
							{
								OFFSET -3.005700 7.261795 7.955601
								CHANNELS 6 Xposition Yposition Zposition Xrotation Yrotation Zrotation
								End Site
								{
									OFFSET 0.000000 11.825378 0.000000
								}
							}
							JOINT Jaw
							{
								OFFSET 0.000000 2.030289 2.456200
								CHANNELS 6 Xposition Yposition Zposition Xrotation Yrotation Zrotation
								End Site
								{
									OFFSET 0.000000 11.825378 0.000000
								}
							}
						}
					}
				}
				JOINT L_Shoulder
				{
					OFFSET 6.144200 10.187012 -3.793198
					CHANNELS 6 Xposition Yposition Zposition Xrotation Yrotation Zrotation
					JOINT L_Arm
					{
						OFFSET 12.319103 -1.112991 -1.793500
						CHANNELS 3 Xrotation Yrotation Zrotation
						JOINT L_ForeArm
						{
							OFFSET 27.687006 -0.000015 -0.000000
							CHANNELS 3 Xrotation Yrotation Zrotation
							JOINT L_Hand
							{
								OFFSET 27.873787 0.000031 -0.000000
								CHANNELS 3 Xrotation Yrotation Zrotation
								JOINT L_HandThumb1
								{
									OFFSET 2.421021 -1.395554 2.392360
									CHANNELS 6 Xposition Yposition Zposition Xrotation Yrotation Zrotation
									JOINT L_HandThumb2
									{
										OFFSET 3.496521 -2.018692 2.018717
										CHANNELS 6 Xposition Yposition Zposition Xrotation Yrotation Zrotation
										JOINT L_HandThumb3
										{
											OFFSET 4.011398 -2.315994 2.315975
											CHANNELS 6 Xposition Yposition Zposition Xrotation Yrotation Zrotation
											JOINT L_HandThumb4
											{
												OFFSET 2.095787 -1.210007 1.209984
												CHANNELS 6 Xposition Yposition Zposition Xrotation Yrotation Zrotation
												End Site
												{
													OFFSET 1.877617 -1.197205 1.536803
												}
											}
										}
									}
								}
								JOINT L_HandIndex1
								{
									OFFSET 10.514771 -0.231369 2.264849
									CHANNELS 6 Xposition Yposition Zposition Xrotation Yrotation Zrotation
									JOINT L_HandIndex2
									{
										OFFSET 5.549301 0.000000 0.000000
										CHANNELS 3 Xrotation Yrotation Zrotation
										JOINT L_HandIndex3
										{
											OFFSET 3.391098 0.000000 0.000001
											CHANNELS 3 Xrotation Yrotation Zrotation
											JOINT L_HandIndex4
											{
												OFFSET 2.334351 0.000000 0.000011
												CHANNELS 6 Xposition Yposition Zposition Xrotation Yrotation Zrotation
												End Site
												{
													OFFSET 2.334351 0.000000 0.000101
												}
											}
										}
									}
								}
								JOINT L_HandMiddle1
								{
									OFFSET 10.490761 -0.000015 0.000002
									CHANNELS 6 Xposition Yposition Zposition Xrotation Yrotation Zrotation
									JOINT L_HandMiddle2
									{
										OFFSET 5.792099 0.000000 0.000000
										CHANNELS 3 Xrotation Yrotation Zrotation
										JOINT L_HandMiddle3
										{
											OFFSET 3.713196 0.000000 0.000000
											CHANNELS 3 Xrotation Yrotation Zrotation
											JOINT L_HandMiddle4
											{
												OFFSET 2.752045 -0.000031 0.000022
												CHANNELS 6 Xposition Yposition Zposition Xrotation Yrotation Zrotation
												End Site
												{
													OFFSET 2.752045 0.000031 -0.003599
												}
											}
										}
									}
								}
								JOINT L_HandRing1
								{
									OFFSET 10.240753 -0.046051 -2.314147
									CHANNELS 6 Xposition Yposition Zposition Xrotation Yrotation Zrotation
									JOINT L_HandRing2
									{
										OFFSET 5.445206 -0.000015 0.000676
										CHANNELS 3 Xrotation Yrotation Zrotation
										JOINT L_HandRing3
										{
											OFFSET 3.713196 0.000015 -0.000674
											CHANNELS 3 Xrotation Yrotation Zrotation
											JOINT L_HandRing4
											{
												OFFSET 2.280716 0.000000 -0.000046
												CHANNELS 3 Xrotation Yrotation Zrotation
												End Site
												{
													OFFSET 2.280716 -0.000061 0.003501
												}
											}
										}
									}
								}
								JOINT L_HandPinky1
								{
									OFFSET 9.820259 -0.209747 -4.418469
									CHANNELS 6 Xposition Yposition Zposition Xrotation Yrotation Zrotation
									JOINT L_HandPinky2
									{
										OFFSET 3.676300 0.000000 0.000000
										CHANNELS 3 Xrotation Yrotation Zrotation
										JOINT L_HandPinky3
										{
											OFFSET 2.811295 0.000000 0.000001
											CHANNELS 3 Xrotation Yrotation Zrotation
											JOINT L_HandPinky4
											{
												OFFSET 1.659546 0.000000 0.000000
												CHANNELS 3 Xrotation Yrotation Zrotation
												End Site
												{
													OFFSET 1.659546 0.000015 -0.001891
												}
											}
										}
									}
								}
							}
						}
					}
				}
				JOINT R_Shoulder
				{
					OFFSET -6.140200 10.187012 -3.793198
					CHANNELS 6 Xposition Yposition Zposition Xrotation Yrotation Zrotation
					JOINT R_Arm
					{
						OFFSET -12.323095 -1.113007 -1.793499
						CHANNELS 3 Xrotation Yrotation Zrotation
						JOINT R_ForeArm
						{
							OFFSET -27.687002 0.000015 -0.000002
							CHANNELS 3 Xrotation Yrotation Zrotation
							JOINT R_Hand
							{
								OFFSET -27.873795 -0.000015 0.000000
								CHANNELS 3 Xrotation Yrotation Zrotation
								JOINT R_HandPinky1
								{
									OFFSET -9.791023 -0.212921 -4.378341
									CHANNELS 6 Xposition Yposition Zposition Xrotation Yrotation Zrotation
									JOINT R_HandPinky2
									{
										OFFSET -3.652802 0.000000 0.000000
										CHANNELS 3 Xrotation Yrotation Zrotation
										JOINT R_HandPinky3
										{
											OFFSET -2.781998 0.000000 0.000000
											CHANNELS 3 Xrotation Yrotation Zrotation
											JOINT R_HandPinky4
											{
												OFFSET -1.612122 0.000198 0.000004
												CHANNELS 3 Xrotation Yrotation Zrotation
												End Site
												{
													OFFSET -1.612106 0.000320 -0.007100
												}
											}
										}
									}
								}
								JOINT R_HandRing1
								{
									OFFSET -10.391914 0.105164 -2.349891
									CHANNELS 6 Xposition Yposition Zposition Xrotation Yrotation Zrotation
									JOINT R_HandRing2
									{
										OFFSET -5.401306 0.000000 0.000000
										CHANNELS 3 Xrotation Yrotation Zrotation
										JOINT R_HandRing3
										{
											OFFSET -3.391602 0.000000 0.000000
											CHANNELS 3 Xrotation Yrotation Zrotation
											JOINT R_HandRing4
											{
												OFFSET -2.353172 0.000305 -0.000032
												CHANNELS 3 Xrotation Yrotation Zrotation
												End Site
												{
													OFFSET -2.353180 0.000275 0.001400
												}
											}
										}
									}
								}
								JOINT R_HandMiddle1
								{
									OFFSET -10.779236 0.000000 0.000001
									CHANNELS 6 Xposition Yposition Zposition Xrotation Yrotation Zrotation
									JOINT R_HandMiddle2
									{
										OFFSET -5.616806 0.000000 0.000000
										CHANNELS 3 Xrotation Yrotation Zrotation
										JOINT R_HandMiddle3
										{
											OFFSET -3.736397 0.000000 0.000000
											CHANNELS 3 Xrotation Yrotation Zrotation
											JOINT R_HandMiddle4
											{
												OFFSET -2.691521 0.000336 -0.000028
												CHANNELS 3 Xrotation Yrotation Zrotation
												End Site
												{
													OFFSET -2.691513 0.000214 0.009200
												}
											}
										}
									}
								}
								JOINT R_HandIndex1
								{
									OFFSET -10.577324 -0.175369 2.287349
									CHANNELS 6 Xposition Yposition Zposition Xrotation Yrotation Zrotation
									JOINT R_HandIndex2
									{
										OFFSET -5.376801 0.000000 0.000001
										CHANNELS 3 Xrotation Yrotation Zrotation
										JOINT R_HandIndex3
										{
											OFFSET -3.385498 0.000000 0.000001
											CHANNELS 3 Xrotation Yrotation Zrotation
											JOINT R_HandIndex4
											{
												OFFSET -2.363556 0.000305 0.000042
												CHANNELS 3 Xrotation Yrotation Zrotation
												End Site
												{
													OFFSET -2.363548 0.000381 -0.006501
												}
											}
										}
									}
								}
								JOINT R_HandThumb1
								{
									OFFSET -2.570442 -1.245102 2.319054
									CHANNELS 6 Xposition Yposition Zposition Xrotation Yrotation Zrotation
									JOINT R_HandThumb2
									{
										OFFSET -3.518791 -2.031555 2.031563
										CHANNELS 6 Xposition Yposition Zposition Xrotation Yrotation Zrotation
										JOINT R_HandThumb3
										{
											OFFSET -3.945267 -2.277756 2.277756
											CHANNELS 6 Xposition Yposition Zposition Xrotation Yrotation Zrotation
											JOINT R_HandThumb4
											{
												OFFSET -2.055496 -1.186386 1.186664
												CHANNELS 3 Xrotation Yrotation Zrotation
												End Site
												{
													OFFSET -1.840202 -1.174805 1.508071
												}
											}
										}
									}
								}
							}
						}
					}
				}
			}
		}
	}
	JOINT L_UpLeg
	{
		OFFSET 9.633796 -3.273308 -0.000000
		CHANNELS 6 Xposition Yposition Zposition Xrotation Yrotation Zrotation
		JOINT L_Leg
		{
			OFFSET -0.006490 -41.762173 -0.553830
			CHANNELS 3 Xrotation Yrotation Zrotation
			JOINT L_Foot
			{
				OFFSET 0.006493 -39.146984 -2.021915
				CHANNELS 3 Xrotation Yrotation Zrotation
				JOINT L_ToeBase
				{
					OFFSET -0.183300 -12.185708 8.282301
					CHANNELS 6 Xposition Yposition Zposition Xrotation Yrotation Zrotation
					JOINT L_Toe_End
					{
						OFFSET -0.094684 -0.116787 6.663326
						CHANNELS 3 Xrotation Yrotation Zrotation
						End Site
						{
							OFFSET -0.094684 -0.116787 6.663328
						}
					}
				}
			}
		}
	}
	JOINT R_UpLeg
	{
		OFFSET -9.633803 -3.273293 0.000000
		CHANNELS 6 Xposition Yposition Zposition Xrotation Yrotation Zrotation
		JOINT R_Leg
		{
			OFFSET -0.006491 -41.762146 -0.555884
			CHANNELS 3 Xrotation Yrotation Zrotation
			JOINT R_Foot
			{
				OFFSET 0.006493 -39.147087 -2.019920
				CHANNELS 3 Xrotation Yrotation Zrotation
				JOINT R_ToeBase
				{
					OFFSET -0.183299 -12.185700 8.282300
					CHANNELS 6 Xposition Yposition Zposition Xrotation Yrotation Zrotation
					JOINT R_Toe_End
					{
						OFFSET 0.094687 -0.116863 6.675869
						CHANNELS 3 Xrotation Yrotation Zrotation
						End Site
						{
							OFFSET 0.094687 -0.116863 6.675869
						}
					}
				}
			}
		}
	}
}
MOTION
Frames: 4
Frame Time: 0.033333
-13.706264 15.667564 -110.612457 -64.108285 12.909732 -3.285318 0.000011 9.226309 1.577098 13.612505 9.350460 -4.284678 0.000004 16.253994 -0.165608 24.305011 4.554242 0.925229 -0.000004 13.639600 -1.292295 18.093854 7.749540 1.956782 -0.000001 13.877397 -4.354207 -16.717767 -1.505893 -2.065647 -0.000005 4.339996 0.926910 0.000001 0.000002 0.000003 -0.000003 4.026618 0.858487 18.072389 -11.660587 10.076536 0.000001 21.748795 -0.000011 -0.000000 0.000000 -0.000000 3.005701 7.261780 7.955585 -0.000000 0.000000 -0.000000 -3.005700 7.261780 7.955584 -0.000000 0.000000 -0.000000 0.000001 2.030273 2.456185 -0.000000 0.000000 -0.000000 6.144199 10.187000 -3.793208 -2.150256 -20.621746 -11.035481 -36.622996 -14.506238 -57.482537 0.000014 -26.092783 0.000019 -55.666776 -7.249971 -3.093988 2.421008 -1.395557 2.392361 -8.264386 6.915400 6.597599 3.496522 -2.018692 2.018717 3.902785 13.661170 4.299642 4.011402 -2.315998 2.315977 3.136242 18.352303 15.355391 2.095781 -1.210010 1.209980 0.000003 -0.000003 0.000006 10.514764 -0.231381 2.264853 -0.186217 3.432184 -29.138707 0.848275 3.038293 -31.191906 0.167540 1.392485 -13.720706 2.334346 -0.000009 0.000011 0.000003 -0.000002 0.000002 10.490761 -0.000024 0.000005 1.697400 6.481295 -36.947256 1.627104 4.052697 -43.735733 0.133485 1.244745 -12.240484 2.752056 -0.000060 0.000020 -0.000000 -0.000001 0.000002 10.240762 -0.046059 -2.314146 2.541092 7.193446 -47.654428 1.227770 3.583065 -37.851232 0.271511 1.774920 -17.504774 -0.000000 0.000001 0.000000 9.820257 -0.209743 -4.418463 3.823244 8.368465 -47.360661 1.100292 3.419506 -35.664321 0.131421 1.235178 -12.144805 0.000001 0.000002 0.000000 -6.140196 10.186996 -3.793208 4.444381 10.259888 18.488333 -4.504635 4.807771 18.580235 0.000214 99.573496 -0.000185 -34.394442 5.102677 -13.976752 -9.791017 -0.212911 -4.378328 -1.658358 -5.029505 71.087270 1.778090 -3.662506 51.779951 2.806084 -4.274644 66.556621 0.000002 -0.000001 0.000004 -10.391914 0.105182 -2.349878 0.166630 -5.371350 66.197265 3.198995 -4.423996 71.728577 2.546847 -4.152965 63.041157 -0.000001 -0.000000 -0.000003 -10.779227 0.000012 0.000011 1.070656 -5.564623 60.142336 4.685243 -4.657807 90.337072 3.534590 -4.520696 76.044874 -0.000004 0.000002 0.000000 -10.577310 -0.175354 2.287360 -1.128331 6.086216 8.107824 1.528827 -3.452062 47.764158 2.951966 -4.334870 68.489387 0.000003 -0.000001 -0.000003 -2.570423 -1.245108 2.319045 45.389954 21.021167 -1.525090 -3.518803 -2.031530 2.031561 36.481956 -22.282944 7.766974 -3.945265 -2.277737 2.277761 5.195200 13.830494 -36.174277 -0.000000 -0.000003 0.000006 9.633796 -3.273304 -0.000001 -59.606740 1.573085 10.460728 47.185481 2.940578 -2.903108 8.019102 3.732286 -1.941067 -0.183301 -12.185707 8.282302 3.078996 -0.000006 -0.000005 0.000002 -0.000003 -0.000001 -9.633807 -3.273298 0.000004 -48.154381 -7.116571 -6.536528 41.403985 -6.563856 0.622911 16.947183 -12.719826 5.784147 -0.183301 -12.185699 8.282298 2.627201 0.000000 -0.000001 0.000004 -0.000000 0.000000 
-13.664761 15.287971 -114.727470 -72.346033 10.982117 -1.926971 0.000010 9.226307 1.577096 11.664467 9.551147 -5.675144 0.000003 16.253998 -0.165589 24.120752 4.940129 0.717229 -0.000001 13.639565 -1.292301 17.909483 7.792714 1.616364 0.000007 13.877378 -4.354207 -15.525044 -1.237705 -2.708163 0.000001 4.339996 0.926896 -0.000000 0.000001 0.000000 -0.000005 4.026597 0.858501 20.985027 -7.887216 10.968607 -0.000001 21.748810 0.000018 0.000001 0.000000 0.000000 3.005700 7.261795 7.955615 0.000001 0.000000 0.000000 -3.005702 7.261795 7.955624 0.000001 0.000000 0.000000 -0.000002 2.030289 2.456225 0.000001 0.000000 0.000000 6.144197 10.187003 -3.793196 -2.897027 -22.472004 -12.811411 -28.388699 -14.138325 -52.370428 0.000017 -21.269904 0.000001 -66.502724 -11.342517 -5.491707 2.421012 -1.395549 2.392359 -6.985656 6.874660 6.513367 3.496521 -2.018688 2.018717 5.234261 13.837408 3.639126 4.011422 -2.315979 2.315977 2.871987 18.424814 15.699606 2.095781 -1.210011 1.209987 0.000002 -0.000003 0.000006 10.514758 -0.231385 2.264850 -0.111427 3.243653 -24.473027 0.627982 2.640897 -26.747793 0.094158 1.047222 -10.274414 2.334350 0.000017 0.000011 -0.000001 0.000001 0.000000 10.490743 -0.000030 0.000000 1.439212 6.222689 -32.379447 1.376085 3.773547 -40.058680 0.071228 0.911725 -8.933156 2.752053 -0.000032 0.000017 -0.000001 -0.000004 0.000000 10.240753 -0.046053 -2.314146 2.169600 6.912491 -43.174319 1.034225 3.318599 -34.643525 0.168446 1.406643 -13.769808 -0.000000 0.000002 -0.000003 9.820251 -0.209729 -4.418467 3.350096 8.194642 -42.616911 0.923934 3.159693 -32.591395 0.074676 0.933355 -9.146846 0.000000 -0.000002 -0.000001 -6.140200 10.186979 -3.793191 4.653643 8.822663 20.409638 0.268331 8.798694 17.571056 0.000270 100.101442 -0.000251 -30.829927 -0.535389 -11.613607 -9.791033 -0.212918 -4.378328 -2.080213 -4.903126 71.257888 1.802727 -3.681740 52.164958 2.965558 -4.340143 68.679499 0.000001 0.000001 0.000001 -10.391911 0.105174 -2.349879 -0.126035 -5.277065 66.751282 3.247715 -4.439742 72.359072 2.622362 -4.190462 64.079134 -0.000000 -0.000000 0.000001 -10.779252 0.000004 0.000016 1.111132 -5.608743 60.843325 4.655264 -4.657885 89.968024 3.482584 -4.507474 75.384245 -0.000001 -0.000000 0.000001 -10.577326 -0.175361 2.287362 -1.236059 5.909059 8.940851 1.556602 -3.477023 48.224032 2.982689 -4.346835 68.895531 -0.000001 0.000002 -0.000002 -2.570442 -1.245106 2.319045 47.257235 21.601114 -3.028456 -3.518806 -2.031549 2.031553 38.762082 -21.148374 10.683912 -3.945277 -2.277757 2.277755 6.236966 17.453751 -36.256130 -0.000001 0.000000 -0.000001 9.633796 -3.273307 -0.000008 -54.196851 2.498407 12.611756 45.991472 1.729316 -1.761042 10.367166 8.151108 -2.025685 -0.183303 -12.185705 8.282301 3.045222 -0.000006 -0.000008 -0.000003 0.000001 -0.000002 -9.633805 -3.273294 -0.000000 -39.921394 -8.402173 -7.217732 35.649035 -5.628980 -0.013928 22.654003 -12.829831 7.390024 -0.183299 -12.185697 8.282299 5.752440 -0.000004 0.000001 -0.000000 -0.000000 0.000000 
-13.592092 15.161247 -118.734009 -79.912667 8.619995 -0.777834 0.000012 9.226303 1.577100 9.634814 9.527377 -6.972430 -0.000000 16.254005 -0.165604 23.315348 5.139750 0.425682 0.000001 13.639585 -1.292295 16.818841 7.456452 1.076608 0.000000 13.877364 -4.354208 -14.127866 -1.069036 -2.864165 -0.000005 4.339996 0.926896 -0.000002 -0.000000 0.000001 -0.000003 4.026611 0.858496 21.988334 -3.975494 10.652010 0.000003 21.748810 -0.000009 0.000001 0.000000 -0.000002 3.005703 7.261795 7.955606 0.000001 0.000000 -0.000002 -3.005696 7.261810 7.955593 0.000001 0.000000 -0.000002 0.000002 2.030289 2.456197 0.000001 0.000000 -0.000002 6.144197 10.186986 -3.793221 -3.890303 -25.958312 -12.413026 -19.264682 -11.375870 -49.377135 0.000013 -18.428030 0.000002 -77.210125 -12.838383 -2.942229 2.421005 -1.395540 2.392353 -5.603801 6.765033 6.383995 3.496518 -2.018683 2.018716 6.671519 13.998574 2.866200 4.011417 -2.315987 2.315983 2.590045 18.478997 16.069002 2.095778 -1.210008 1.209980 -0.000001 -0.000003 0.000004 10.514769 -0.231368 2.264845 -0.040873 3.080149 -19.655637 0.434170 2.215193 -22.175046 0.040779 0.690849 -6.756969 2.334326 0.000003 0.000004 0.000002 0.000000 -0.000005 10.490758 -0.000021 -0.000001 1.182759 5.932798 -27.594463 1.133637 3.465387 -36.219656 0.026891 0.561306 -5.485528 2.752064 -0.000049 0.000022 -0.000000 -0.000003 0.000002 10.240740 -0.046053 -2.314151 1.804031 6.585432 -38.492340 0.848794 3.032070 -31.304205 0.086768 1.016050 -9.873708 -0.000000 -0.000000 0.000002 9.820243 -0.209759 -4.418467 2.867319 7.966510 -37.688909 0.757333 2.882952 -29.431388 0.032941 0.621100 -6.072069 0.000001 -0.000002 -0.000001 -6.140196 10.186971 -3.793220 5.089748 6.605988 20.934846 5.480306 16.278619 15.118453 0.000302 97.823492 -0.000279 -28.128712 -5.745022 -6.817001 -9.791027 -0.212909 -4.378338 -2.527255 -4.773002 71.446046 1.829957 -3.702684 52.587546 3.138370 -4.403519 70.946111 0.000001 -0.000001 0.000001 -10.391904 0.105176 -2.349888 -0.438672 -5.184240 67.347919 3.300268 -4.456052 73.036804 2.703966 -4.229083 65.191041 -0.000002 0.000003 -0.000000 -10.779235 0.000006 0.000011 1.155151 -5.655529 61.595548 4.623811 -4.657768 89.580520 3.427819 -4.492869 74.686261 -0.000000 0.000002 0.000002 -10.577337 -0.175355 2.287354 -1.346867 5.704546 9.844837 1.587443 -3.504295 48.730623 3.016146 -4.359559 69.336146 0.000000 -0.000001 0.000001 -2.570435 -1.245109 2.319015 49.274795 22.172975 -4.648230 -3.518789 -2.031526 2.031565 41.040380 -19.750023 13.700249 -3.945266 -2.277736 2.277764 7.437970 21.301927 -36.464891 -0.000003 0.000001 0.000002 9.633795 -3.273302 -0.000015 -48.444657 3.043401 14.969978 43.817412 0.364763 -0.256804 11.665767 11.293705 -2.191600 -0.183298 -12.185708 8.282299 2.995843 -0.000008 -0.000009 0.000001 -0.000004 0.000001 -9.633804 -3.273293 0.000002 -32.545602 -9.543025 -7.877400 29.740799 -4.630920 -0.638794 28.563076 -12.918647 8.435918 -0.183299 -12.185700 8.282297 8.235567 -0.000009 -0.000009 -0.000002 0.000000 -0.000002 
-13.515059 15.462967 -122.532646 -86.437635 5.883744 0.100326 0.000011 9.226318 1.577100 7.579988 9.279308 -8.153388 -0.000001 16.253994 -0.165605 21.608731 5.091737 0.007417 0.000002 13.639601 -1.292304 14.832376 6.815548 0.380318 -0.000000 13.877405 -4.354187 -12.500035 -0.917299 -2.622828 -0.000000 4.340012 0.926909 -0.000003 -0.000001 0.000001 -0.000001 4.026620 0.858504 19.696555 -0.847744 9.035181 -0.000005 21.748795 0.000006 -0.000000 0.000000 0.000001 3.005696 7.261780 7.955601 -0.000000 0.000000 0.000001 -3.005704 7.261795 7.955593 -0.000000 0.000000 0.000001 -0.000004 2.030289 2.456191 -0.000000 0.000000 0.000001 6.144197 10.187039 -3.793202 -4.231664 -28.124035 -11.741891 -3.825332 -2.848885 -47.129962 0.000036 -36.016837 0.000019 -80.732057 -10.292217 10.871253 2.421031 -1.395538 2.392360 -4.151253 6.595019 6.216069 3.496519 -2.018693 2.018714 8.180364 14.137511 2.002250 4.011420 -2.315987 2.315970 2.297030 18.518313 16.454510 2.095782 -1.210010 1.209987 -0.000001 0.000005 0.000005 10.514783 -0.231372 2.264852 0.021071 2.986896 -15.258547 0.288607 1.817833 -18.040111 0.012351 0.380720 -3.717500 2.334356 -0.000001 0.000009 0.000001 -0.000000 -0.000002 10.490779 -0.000014 0.000000 0.963698 5.656974 -23.168907 0.934193 3.175709 -32.777579 0.005358 0.250855 -2.448459 2.752041 -0.000050 0.000017 -0.000001 0.000002 0.000001 10.240765 -0.046052 -2.314147 1.492369 6.257808 -34.182744 0.700542 2.772958 -28.384291 0.036201 0.661270 -6.375541 0.000002 0.000001 0.000000 9.820273 -0.209756 -4.418471 2.437609 7.716166 -33.156757 0.627232 2.639399 -26.731246 0.010716 0.354626 -3.462470 -0.000003 -0.000001 -0.000002 -6.140203 10.187033 -3.793202 5.557174 4.214683 21.163879 11.632044 23.088404 11.870009 0.000381 96.722329 -0.000336 -26.725367 -9.827303 -0.618895 -9.791027 -0.212901 -4.378346 -2.991872 -4.641743 71.647195 1.859092 -3.724730 53.037379 3.321269 -4.462352 73.312320 0.000000 -0.000003 0.000001 -10.391949 0.105178 -2.349896 -0.765845 -5.095652 67.974610 3.355613 -4.472499 73.747752 2.790186 -4.267789 66.354543 0.000002 -0.000000 -0.000000 -10.779242 0.000020 0.000000 1.201942 -5.703914 62.383601 4.591356 -4.657407 89.180919 3.371265 -4.477017 73.963149 -0.000000 -0.000001 0.000002 -10.577353 -0.175364 2.287349 -1.457252 5.479963 10.799276 1.620626 -3.533088 49.271164 3.051569 -4.372688 69.801439 -0.000001 -0.000001 0.000001 -2.570459 -1.245109 2.319015 51.407275 22.717882 -6.354785 -3.518805 -2.031547 2.031559 43.229483 -18.108343 16.738009 -3.945273 -2.277758 2.277770 8.823414 25.292822 -36.856811 -0.000005 -0.000003 0.000006 9.633797 -3.273310 -0.000005 -42.502611 3.447053 17.491508 41.229928 -1.144912 1.441630 11.540137 13.451006 -2.271507 -0.183302 -12.185706 8.282300 2.937302 -0.000007 -0.000003 -0.000002 -0.000004 0.000001 -9.633805 -3.273281 -0.000002 -27.138939 -10.333446 -8.502369 25.272036 -3.682686 -1.243061 33.676442 -13.241397 8.589806 -0.183303 -12.185701 8.282304 9.557625 -0.000015 -0.000004 0.000003 0.000001 -0.000002 
